<!-- Generator: Adobe Illustrator 18.0.0, SVG Export Plug-In  -->
<svg version="1.1"
	 xmlns="http://www.w3.org/2000/svg" xmlns:xlink="http://www.w3.org/1999/xlink" xmlns:a="http://ns.adobe.com/AdobeSVGViewerExtensions/3.0/"
	 x="0px" y="0px" width="202.4px" height="112.7px" viewBox="0 0 202.4 112.7" style="enable-background:new 0 0 202.4 112.7;"
	 xml:space="preserve">
<defs>
</defs>
<g>
	<rect x="56.2" y="56.5" style="fill:#004861;" width="146.2" height="56.2"/>
	<polygon style="fill:#007D84;" points="0,0 0,56.5 56.2,112.7 56.2,56.5 56.2,0 	"/>
	<path style="fill:#FFFFFF;" d="M28.1,26.9c2.4,0,4.5-0.9,6.2-2.6c1.7-1.7,2.6-3.8,2.6-6.2c0-2.4-0.9-4.5-2.6-6.2
		c-1.7-1.7-3.8-2.6-6.2-2.6c-2.4,0-4.5,0.9-6.2,2.6c-1.7,1.7-2.6,3.8-2.6,6.2c0,2.4,0.9,4.5,2.6,6.2C23.6,26.1,25.7,26.9,28.1,26.9z
		 M25.3,15.3c0.8-0.8,1.7-1.2,2.8-1.2c1.1,0,2,0.4,2.8,1.2c0.8,0.8,1.2,1.7,1.2,2.8c0,1.1-0.4,2-1.2,2.8c-0.8,0.8-1.7,1.2-2.8,1.2
		c-1.1,0-2.1-0.4-2.8-1.2c-0.8-0.8-1.2-1.7-1.2-2.8C24.1,17,24.5,16.1,25.3,15.3z"/>
	<path style="fill:#FFFFFF;" d="M36.9,56.5c0-2.4-0.9-4.5-2.6-6.2c-1.7-1.7-3.8-2.6-6.2-2.6c-2.4,0-4.5,0.9-6.2,2.6
		c-1.7,1.7-2.6,3.8-2.6,6.2h4.8c0-1.1,0.4-2.1,1.2-2.8c0.8-0.8,1.7-1.2,2.8-1.2c1.1,0,2,0.4,2.8,1.2c0.8,0.8,1.2,1.7,1.2,2.8H36.9z"
		/>
	<path style="fill:#FFFFFF;" d="M36.9,28.8H19.3c-1.5,0-2.8,1.2-2.8,2.8v14.3h4.8V33.5h4.3v12.4h4.9V33.5h4.4c0,0,0,0,0,0v12.4h4.8
		V31.6C39.7,30,38.5,28.8,36.9,28.8z"/>
	<g>
		<path style="fill:#007D84;" d="M73.6,45.5c-0.1,0.2-0.2,0.5-0.3,0.7c-0.3,0.7-0.8,1.3-1.4,2c-0.8,0.9-1.7,1.6-2.6,2.1
			C68.5,50.7,67.7,51,67,51c-0.6,0-1.1-0.2-1.6-0.5c-0.3-0.2-0.6-0.5-0.7-0.8c-0.2-0.3-0.3-0.7-0.3-1.1c0-0.6,0.1-1.2,0.3-2
			c0.4-1,0.9-2,1.7-2.9c0.6-0.7,1.2-1.3,1.9-1.6c0.2-0.1,0.5-0.2,0.7-0.3c0.1,0,0.2-0.1,0.3-0.1c0,0,0.1,0,0.2,0
			c0.1,0,0.3,0,0.4,0.1c0.2,0.1,0.3,0.2,0.3,0.3c0,0.1-0.1,0.1-0.2,0.2c0,0-0.2,0.1-0.4,0.3c0,0-0.1,0-0.1,0.1c-0.1,0-0.1,0-0.2,0.1
			c-0.2,0.1-0.3,0.1-0.5,0.2c-0.5,0.3-1.1,0.8-1.6,1.4c-0.7,0.8-1.2,1.7-1.5,2.7c-0.1,0.4-0.2,0.8-0.2,1.1c0.2-0.2,0.9-0.6,2.1-1.2
			c0.2-0.1,0.5-0.2,0.7-0.3c0.7-0.3,1.3-0.5,1.9-0.8c1.4-0.5,2.4-0.8,2.9-1l0.1,0L73.6,45.5L73.6,45.5z M72.3,46
			c-2,0.5-3.6,1-4.8,1.4c-1.3,0.5-2.1,0.8-2.2,0.8c0,0.4,0.1,0.8,0.2,1c0.2,0.2,0.3,0.4,0.5,0.5c0.3,0.2,0.5,0.2,0.9,0.2
			c0.6,0,1.3-0.2,2.1-0.7c0.9-0.5,1.7-1.2,2.4-2C71.8,46.8,72.1,46.4,72.3,46z"/>
		<path style="fill:#007D84;" d="M78.2,47.5C78.2,47.5,78.2,47.6,78.2,47.5c-0.1,0-0.2,0-0.5-0.1c-0.3-0.1-0.5-0.2-0.7-0.2
			c-0.1,0-0.2-0.1-0.4-0.1c-0.2,0-0.4,0-0.5,0.2c-0.2,0.1-0.3,0.3-0.4,0.5c-0.1,0.2-0.1,0.3-0.1,0.3c-0.1,0.3-0.3,0.6-0.4,0.9
			c-0.2,0.7-0.3,1.2-0.4,1.6l0,0.2l0,0.1v0c0,0,0,0,0,0l0,0l0,0l-1.3-0.1l0.2,0l0-0.3c0-0.7,0-1.5,0-2.2c0-0.7,0-1,0-1.1
			c0,0,0,0,0,0c0.1-0.2,0.3-0.2,0.5-0.2c0.2,0,0.3,0.1,0.5,0.2c0,0,0,0,0,0.1c0,0,0,0.1,0,0.4c0.1-0.2,0.3-0.3,0.4-0.4
			c0.3-0.2,0.6-0.4,1-0.4c0.1,0,0.2,0,0.3,0c0.3,0,0.6,0.1,0.9,0.2C78,47.2,78.2,47.4,78.2,47.5z"/>
		<path style="fill:#007D84;" d="M84.8,46.8c0.1,0.2,0.2,0.4,0.2,0.6c0,0.4-0.1,0.7-0.3,1.1c-0.4,0.7-0.8,1.2-1.4,1.6
			c-0.8,0.6-1.7,0.9-2.7,0.9c-0.6,0-1.1-0.2-1.4-0.5c-0.3-0.3-0.4-0.6-0.4-1c0-0.2,0-0.3,0.1-0.6c0.1-0.3,0.2-0.5,0.2-0.5
			c0,0,0,0,0.1-0.1c0.1-0.1,0.3-0.1,0.4-0.1c0.1,0,0.2,0,0.3,0.1c0-0.1,0.1-0.1,0.1-0.2c0.1-0.1,0.1-0.2,0.2-0.4
			c0.2-0.3,0.4-0.6,0.7-0.8c0.3-0.3,0.6-0.6,1-0.7c0.3-0.1,0.5-0.2,0.6-0.2c0.2,0,0.4,0,0.6,0c0.3,0,0.5,0.1,0.6,0.1
			c0.3,0.1,0.5,0.2,0.8,0.4C84.5,46.5,84.6,46.6,84.8,46.8z M83.8,47.4c0-0.1-0.1-0.2-0.2-0.2c-0.2-0.1-0.5-0.2-0.9-0.2
			c-0.1,0-0.2,0-0.3,0c-0.2,0-0.4,0.1-0.7,0.3c-0.4,0.2-0.9,0.6-1.3,1.1c-0.1,0.2-0.3,0.3-0.3,0.4c0,0.1-0.1,0.2-0.1,0.4
			c-0.1,0.3-0.1,0.5,0.1,0.6c0.1,0.1,0.3,0.2,0.7,0.2c0.7,0,1.3-0.2,1.9-0.7c0.4-0.3,0.8-0.7,1-1.3C83.8,47.7,83.8,47.5,83.8,47.4z"
			/>
		<path style="fill:#007D84;" d="M90.8,46.9L90.8,46.9L90.8,46.9l-0.1,0.2L90.5,48c-0.2,0.7-0.2,1.3-0.2,1.7c0,0.2,0,0.5,0,0.7
			c0,0.2,0,0.3,0,0.4c0,0.1,0,0.1-0.1,0.1c-0.1,0-0.2-0.1-0.3-0.3c-0.1-0.2-0.2-0.5-0.3-0.8c0,0,0,0,0-0.3c-0.1,0.1-0.2,0.3-0.3,0.4
			c-0.6,0.7-1.2,1.1-2,1.1c-0.5,0-0.8-0.1-1.2-0.4c-0.3-0.2-0.5-0.5-0.7-0.9c-0.2-0.5-0.2-1-0.2-1.7c0-0.4,0.1-0.8,0.1-1.1
			c0-0.3,0.1-0.5,0.1-0.5c0,0,0,0,0,0c0.2-0.2,0.3-0.3,0.5-0.3c0.2,0,0.3,0.1,0.5,0.3c0,0,0,0.1,0,0.1c0,0,0,0.1-0.1,0.5
			c-0.1,0.4-0.1,0.7-0.1,1.1c0,0.5,0,1,0.1,1.4c0.2,0.4,0.5,0.6,0.9,0.6c0.4,0,0.8-0.2,1.1-0.7c0.3-0.3,0.5-0.8,0.7-1.3
			c0.2-0.4,0.3-0.8,0.4-1.1c0,0,0,0,0,0v0L90.8,46.9z"/>
		<path style="fill:#007D84;" d="M95,48.4c0,0.1,0,0.3-0.1,0.4c-0.2,0.5-0.6,0.9-1.2,1.2c-0.5,0.2-0.9,0.4-1.4,0.4
			c-0.1,0.4-0.2,1.3-0.3,2.6c-0.1,1.2-0.3,2.2-0.4,3l0,0.2v0l-0.8,0l0-0.1c-0.1,0-0.1,0,0,0l0-0.1c0-0.3,0-0.7,0-1.2
			c0-1.6,0.1-3,0.4-4.3c0.2-0.7,0.4-1.4,0.8-1.9c0.2-0.7,0.3-1.1,0.3-1.3c0-0.1,0-0.1,0.1-0.1c0.2-0.3,0.3-0.4,0.5-0.4
			c0.1,0,0.2,0.2,0.2,0.6c0,0,0,0.1,0,0.1c0.3-0.2,0.7-0.3,1.1-0.3l0.2,0h0l0.3,0.1l-0.1,0l0.1,0.2C94.9,47.8,95,48.1,95,48.4z
			 M94.4,48.5c0-0.2-0.1-0.4-0.2-0.6c-0.1,0-0.2,0-0.2,0c-0.2,0.1-0.4,0.1-0.6,0.3c-0.3,0.2-0.4,0.4-0.5,0.5c0,0-0.1,0.1-0.2,0.2
			c-0.1,0.4-0.2,0.9-0.3,1.3c0.4-0.1,0.8-0.3,1.2-0.5c0.1,0,0.2-0.2,0.5-0.4C94.3,49,94.4,48.8,94.4,48.5z"/>
		<path style="fill:#007D84;" d="M103.3,49.7c0,0.1-0.2,0.2-0.4,0.4c-0.3,0.2-0.6,0.3-1,0.5c-0.2,0.1-0.3,0.1-0.5,0.2
			c-0.5,0.1-0.9,0.2-1.3,0.2c-0.2,0-0.5,0-0.7,0c-0.6,0-1,0-1.3-0.1c0,0-0.1,0-0.3-0.1c-0.2-0.1-0.5-0.1-0.7-0.2
			c-0.4-0.1-0.7-0.3-1.1-0.6c-0.2-0.2-0.4-0.4-0.4-0.4c-0.2-0.2-0.2-0.4-0.3-0.7c0-0.1,0-0.2,0-0.2c0-0.4,0.2-0.8,0.5-1.2
			c0.5-0.6,1.2-1.1,2.2-1.5c0.7-0.3,1.4-0.4,2-0.4c0.1,0,0.3,0,0.4,0.1l0.2,0l0,0.1c0-0.1,0-0.1,0-0.2c0,0.1,0.1,0.4,0.2,1l0,0
			l-0.1,0.1c-0.5,0.5-1.2,0.9-2,1.2c-0.7,0.2-1.4,0.4-2.1,0.4c-0.1,0.2-0.1,0.3-0.1,0.4c0,0,0,0.1,0.1,0.1c0,0,0.1,0.1,0.1,0.1
			c0.1,0.1,0.2,0.2,0.3,0.2c0.3,0.2,0.7,0.4,1.1,0.5c0.3,0.1,0.5,0.1,0.5,0.1c0,0,0.2,0.1,0.7,0.1c0.6,0.1,1.1,0.1,1.6,0.1
			c0.4,0,0.8,0,1.1-0.1c0.4-0.1,0.7-0.1,1-0.2C103.1,49.7,103.3,49.6,103.3,49.7C103.3,49.6,103.3,49.6,103.3,49.7z M99.8,46.2
			c-0.4,0-0.8,0.1-1.2,0.2c-0.8,0.2-1.4,0.6-1.8,1.1c0.3,0,0.6-0.1,0.9-0.2C98.6,47.1,99.3,46.7,99.8,46.2z"/>
	</g>
	<g>
		<path style="fill:#FFFFFF;" d="M65.4,83.3c0-2.1,1.1-3.3,3.1-3.3c2,0,3.1,1.2,3.1,3.3v6.8c0,2.1-1.1,3.3-3.1,3.3
			c-2,0-3.1-1.2-3.1-3.3V83.3z M67.4,90.3c0,0.9,0.4,1.3,1.1,1.3c0.7,0,1.1-0.4,1.1-1.3v-7.1c0-0.9-0.4-1.3-1.1-1.3
			c-0.7,0-1.1,0.4-1.1,1.3V90.3z"/>
		<path style="fill:#FFFFFF;" d="M78.7,80.1V82l-3.9,9.4h3.9v1.9h-6.1v-1.8l3.9-9.4h-3.7v-1.9H78.7z"/>
		<path style="fill:#FFFFFF;" d="M86.6,93.3h-2.1l-0.4-2.4h-2.5l-0.4,2.4h-1.9l2.1-13.2h3L86.6,93.3z M81.9,89.1h2l-1-6.7L81.9,89.1
			z"/>
		<path style="fill:#FFFFFF;" d="M89.4,83.8v9.5h-1.9V80.1h2.6l2.1,7.9v-7.9h1.8v13.2H92L89.4,83.8z"/>
		<path style="fill:#FFFFFF;" d="M102.3,93.3h-2.1l-0.4-2.4h-2.5L97,93.3h-1.9l2.1-13.2h3L102.3,93.3z M97.6,89.1h2l-1-6.7
			L97.6,89.1z"/>
		<path style="fill:#FFFFFF;" d="M107.7,89.5l1.4-9.3h2.9v13.2h-2v-9.4l-1.4,9.4h-2l-1.5-9.3v9.3h-1.8V80.1h2.9L107.7,89.5z"/>
		<path style="fill:#007D84;" d="M115.9,86c1,0,1.9,0.8,1.9,1.9c0,1-0.8,1.9-1.9,1.9c-1,0-1.9-0.8-1.9-1.9
			C114,86.8,114.8,86,115.9,86z M115.9,88.8c0.5,0,0.9-0.4,0.9-0.9c0-0.5-0.4-0.9-0.9-0.9c-0.5,0-0.9,0.4-0.9,0.9
			C114.9,88.4,115.4,88.8,115.9,88.8z"/>
		<path style="fill:#FFFFFF;" d="M121.9,85.7h2.8v1.9h-2.8v3.9h3.6v1.9h-5.6V80.1h5.6V82h-3.6V85.7z"/>
		<path style="fill:#FFFFFF;" d="M132.8,83.4v1.7c0,2.1-1,3.3-3.1,3.3h-1v4.9h-2.1V80.1h3C131.8,80.1,132.8,81.3,132.8,83.4z
			 M128.8,82v4.5h1c0.7,0,1-0.3,1-1.2v-2c0-0.9-0.4-1.2-1-1.2H128.8z"/>
		<path style="fill:#FFFFFF;" d="M133.8,80.1h2.1v13.2h-2.1V80.1z"/>
		<path style="fill:#FFFFFF;" d="M137.4,80.1h2.1v11.3h3.4v1.9h-5.5V80.1z"/>
		<path style="fill:#007D84;" d="M146.2,86c1,0,1.9,0.8,1.9,1.9c0,1-0.8,1.9-1.9,1.9c-1,0-1.9-0.8-1.9-1.9
			C144.3,86.8,145.1,86,146.2,86z M146.2,88.8c0.5,0,0.9-0.4,0.9-0.9c0-0.5-0.4-0.9-0.9-0.9c-0.5,0-0.9,0.4-0.9,0.9
			C145.3,88.4,145.7,88.8,146.2,88.8z"/>
		<path style="fill:#FFFFFF;" d="M156.1,88.4v1.7c0,2.1-1.1,3.3-3.1,3.3c-2,0-3.1-1.2-3.1-3.3v-6.8c0-2.1,1.1-3.3,3.1-3.3
			c2,0,3.1,1.2,3.1,3.3v1.3h-2v-1.4c0-0.9-0.4-1.3-1.1-1.3s-1.1,0.4-1.1,1.3v7.1c0,0.9,0.4,1.3,1.1,1.3s1.1-0.3,1.1-1.3v-1.9H156.1z
			"/>
		<path style="fill:#FFFFFF;" d="M164.1,93.3H162l-0.4-2.4h-2.5l-0.4,2.4h-1.9l2.1-13.2h3L164.1,93.3z M159.3,89.1h2l-1-6.7
			L159.3,89.1z"/>
		<path style="fill:#FFFFFF;" d="M169.4,89.5l1.4-9.3h2.9v13.2h-2v-9.4l-1.4,9.4h-2l-1.5-9.3v9.3H165V80.1h2.9L169.4,89.5z"/>
		<path style="fill:#FFFFFF;" d="M181.3,83.4v1.7c0,2.1-1,3.3-3.1,3.3h-1v4.9h-2.1V80.1h3C180.3,80.1,181.3,81.3,181.3,83.4z
			 M177.3,82v4.5h1c0.7,0,1-0.3,1-1.2v-2c0-0.9-0.4-1.2-1-1.2H177.3z"/>
		<path style="fill:#FFFFFF;" d="M184.2,80.1v10.2c0,0.9,0.4,1.3,1.1,1.3c0.7,0,1.1-0.3,1.1-1.3V80.1h2v10c0,2.1-1.1,3.3-3.1,3.3
			c-2,0-3.1-1.2-3.1-3.3v-10H184.2z"/>
		<path style="fill:#FFFFFF;" d="M192.5,80c2,0,3,1.2,3,3.3v0.4h-2v-0.5c0-0.9-0.4-1.3-1-1.3s-1,0.4-1,1.3c0,2.7,4,3.2,4,7
			c0,2.1-1.1,3.3-3.1,3.3c-2,0-3.1-1.2-3.1-3.3v-0.8h2v0.9c0,0.9,0.4,1.3,1.1,1.3s1.1-0.3,1.1-1.3c0-2.7-4-3.2-4-7
			C189.5,81.2,190.5,80,192.5,80z"/>
	</g>
</g>
</svg>
